<svg xmlns="http://www.w3.org/2000/svg" width="36" height="36" viewBox="0 0 36 36">
    <g fill="none" fill-rule="evenodd">
        <path fill="#E55F5F" d="M18 0C8.057 0 0 8.057 0 18s8.057 18 18 18 18-8.057 18-18S27.943 0 18 0z"/>
        <path fill="#FFF" d="M22.56 24.516L18 19.956l-4.56 4.56a1.383 1.383 0 1 1-2.363-.978c0-.354.138-.71.407-.977L16.044 18l-4.56-4.56a1.383 1.383 0 0 1-.407-.978 1.383 1.383 0 0 1 2.362-.978L18 16.044l4.56-4.56a1.39 1.39 0 0 1 1.956 0 1.39 1.39 0 0 1 0 1.955L19.956 18l4.56 4.56a1.39 1.39 0 0 1 0 1.956 1.374 1.374 0 0 1-1.955 0z"/>
    </g>
</svg>
