<svg xmlns="http://www.w3.org/2000/svg" width="36" height="36" viewBox="0 0 36 36">
    <g fill="none" fill-rule="evenodd">
        <path fill="#2EB57E" d="M18 0C8.057 0 0 8.057 0 18s8.057 18 18 18 18-8.057 18-18S27.943 0 18 0z"/>
        <path fill="#FFF" d="M27.216 13.024l-11.57 11.622h-.009c-.147.147-.545.476-1.003.476-.33 0-.701-.182-1.013-.493l-4.846-4.846a.345.345 0 0 1 0-.494l1.54-1.54a.342.342 0 0 1 .243-.104c.086 0 .173.035.242.104l3.842 3.842L25.2 10.956a.342.342 0 0 1 .242-.104c.096 0 .182.035.243.104l1.514 1.566c.156.147.156.364.017.502z"/>
    </g>
</svg>
