<svg xmlns="http://www.w3.org/2000/svg" width="36" height="36" viewBox="0 0 36 36">
    <g fill="none" fill-rule="nonzero">
        <path fill="#EFD563" d="M17.982 0C8.067 0 0 8.067 0 17.982c0 9.916 8.067 17.983 17.982 17.983 9.916 0 17.983-8.067 17.983-17.983C35.965 8.067 27.898 0 17.982 0z"/>
        <path fill="#FFF" d="M19.48 26.974a1.498 1.498 0 1 1-2.996 0 1.498 1.498 0 0 1 2.997 0z"/>
        <path fill="#FAFAFA" d="M19.48 20.98a1.499 1.499 0 0 1-2.996 0V8.99a1.499 1.499 0 0 1 2.997 0V20.98z"/>
    </g>
</svg>
